<svg xmlns="http://www.w3.org/2000/svg" viewBox="0 0 64 64" role="img" aria-labelledby="title desc">
  <title id="title">English AI Tutor</title>
  <desc id="desc">A rounded learning mark combining a book, speech wave, and progress check.</desc>
  <rect width="64" height="64" rx="14" fill="#F8FAFC"/>
  <path d="M14 17c0-2.2 1.8-4 4-4h11c3.2 0 5.8 1.2 7.5 3.5C38.2 14.2 40.8 13 44 13h2c2.2 0 4 1.8 4 4v31c0 1.1-.9 2-2 2H37.4c-2.4 0-4.4.8-5.4 2-1-1.2-3-2-5.4-2H16c-1.1 0-2-.9-2-2V17Z" fill="#DBEAFE"/>
  <path d="M19 18h8.6c2.4 0 4.4 1.3 4.4 3.7V48c-1.3-1.5-3.6-2.4-6.2-2.4H19V18Z" fill="#FFFFFF"/>
  <path d="M45 18h-8.6c-2.4 0-4.4 1.3-4.4 3.7V48c1.3-1.5 3.6-2.4 6.2-2.4H45V18Z" fill="#FFFFFF"/>
  <path d="M24 26h4.3M24 32h4.3M24 38h3.3" stroke="#2563EB" stroke-width="3" stroke-linecap="round"/>
  <path d="M38 26c1.4 1.2 2.1 2.8 2.1 4.6S39.4 34 38 35.2M43 23c2.3 2 3.5 4.6 3.5 7.6S45.3 36.2 43 38.2" stroke="#0F766E" stroke-width="3" stroke-linecap="round" fill="none"/>
  <circle cx="44" cy="44" r="11" fill="#F59E0B"/>
  <path d="m39.5 44.2 2.8 2.8 6.2-6.6" stroke="#FFFFFF" stroke-width="3.4" stroke-linecap="round" stroke-linejoin="round" fill="none"/>
  <rect x="1.5" y="1.5" width="61" height="61" rx="12.5" fill="none" stroke="#0F172A" stroke-opacity=".08" stroke-width="3"/>
</svg>
